<?xml version="1.0" encoding="utf-8"?>
<svg viewBox="0 0 552.8 198.8" xmlns="http://www.w3.org/2000/svg"  width="112px"> 
  <defs>
    <style>
    .st0{fill:#fffffff5}.st1{clip-path:url(#SVGID_2_)}.st2{clip-path:url(#SVGID_4_)}.st3{clip-path:url(#SVGID_6_)}.st4{clip-path:url(#SVGID_8_)}.st5{fill:#fff;stroke:#000;stroke-width:4;stroke-miterlimit:10}.st6{clip-path:url(#SVGID_8_)}.st6,.st7{fill:none;stroke:#000;stroke-width:4;stroke-miterlimit:10}.st8,.st9{clip-path:url(#SVGID_10_)}.st9{fill:none;stroke:#000;stroke-width:4;stroke-miterlimit:10}
  </style>
  </defs>
  <g fill="#fffffff5">
    <path d="m285.4 61.4 26.3-1.7c.6 4.3 1.7 7.5 3.5 9.8 2.9 3.6 6.9 5.4 12.2 5.4 3.9 0 7-.9 9.1-2.8 2-1.5 3.2-3.9 3.2-6.4 0-2.4-1.1-4.7-3-6.2-2-1.8-6.7-3.6-14.1-5.2-12.1-2.7-20.8-6.3-25.9-10.9-5.1-4.3-8-10.6-7.8-17.3 0-4.6 1.4-9.2 4-13 3-4.3 7.1-7.7 12-9.6 5.3-2.3 12.7-3.5 22-3.5C338.3 0 347 2.1 353 6.4c6 4.2 9.6 11 10.7 20.3l-26 1.5c-.7-4-2.1-6.9-4.4-8.8s-5.3-2.8-9.2-2.8c-3.2 0-5.6.7-7.2 2-1.5 1.2-2.5 3-2.4 5 0 1.5.8 2.9 2 3.8 1.3 1.2 4.4 2.3 9.3 3.3 12.1 2.6 20.7 5.2 26 7.9s9.1 6 11.4 9.9c2.4 4 3.6 8.6 3.5 13.3 0 5.6-1.6 11.2-4.8 15.9-3.3 4.9-7.9 8.7-13.3 11-5.7 2.5-12.9 3.8-21.5 3.8-15.2 0-25.7-2.9-31.6-8.8s-9.4-13.3-10.1-22.3zM6.3 91V1.6h46.1c8.5 0 15.1.7 19.6 2.2 4.4 1.4 8.3 4.3 10.9 8.2 2.9 4.3 4.3 9.3 4.2 14.5.3 8.8-4.2 17.2-11.9 21.6-3 1.7-6.3 2.9-9.7 3.5 2.5.7 5 1.9 7.2 3.3 1.7 1.4 3.1 3 4.4 4.7 1.5 1.7 2.8 3.6 3.9 5.6l13.4 25.9H63L48.2 63.6c-1.9-3.5-3.5-5.8-5-6.9-2-1.4-4.4-2.1-6.8-2.1H34v36.3H6.3zM34 37.8h11.7c2.5-.2 4.9-.6 7.3-1.2 1.8-.3 3.4-1.3 4.5-2.8 2.7-3.6 2.3-8.7-1-11.8-1.8-1.5-5.3-2.3-10.3-2.3H34zM0 167.6l26.3-1.7c.6 4.3 1.7 7.5 3.5 9.8 2.8 3.6 6.9 5.5 12.2 5.5 3.9 0 7-.9 9.1-2.8 2-1.6 3.2-3.9 3.2-6.4 0-2.4-1.1-4.7-3-6.2-2-1.8-6.7-3.6-14.2-5.2-12.1-2.7-20.8-6.3-25.9-10.9-5.1-4.3-8-10.6-7.8-17.3 0-4.6 1.4-9.2 4-13 3-4.3 7.1-7.7 12-9.6 5.3-2.3 12.7-3.5 22-3.5 11.4 0 20.1 2.1 26.1 6.4s9.5 11 10.6 20.3l-26 1.5c-.7-4-2.1-6.9-4.4-8.8-2.2-1.9-5.3-2.8-9.2-2.7-3.2 0-5.6.7-7.2 2.1-1.6 1.2-2.5 3-2.4 5 0 1.5.8 2.9 2 3.8 1.3 1.2 4.4 2.3 9.3 3.3 12.1 2.6 20.7 5.2 26 7.9s9.1 6 11.4 9.9c2.4 4 3.6 8.6 3.6 13.2 0 5.6-1.7 11.1-4.8 15.8-3.3 4.9-7.9 8.7-13.3 11-5.7 2.5-12.9 3.8-21.5 3.8-15.2 0-25.7-2.9-31.6-8.8-5.9-6-9.2-13.4-10-22.4z" style="fill: #fffffff5;"/>
    <path d="m133 160.6 24.2 7.3c-1.3 6.1-4 11.9-7.7 17-3.4 4.5-7.9 8-13 10.3-5.2 2.3-11.8 3.5-19.8 3.5-9.7 0-17.7-1.4-23.8-4.2-6.2-2.8-11.5-7.8-16-14.9s-6.7-16.2-6.7-27.3c0-14.8 3.9-26.2 11.8-34.1s19-11.9 33.4-11.9c11.3 0 20.1 2.3 26.6 6.8 6.4 4.6 11.2 11.6 14.4 21l-24.4 5.4c-.6-2.1-1.5-4.2-2.7-6-1.5-2.1-3.4-3.7-5.7-4.9s-4.9-1.7-7.5-1.7c-6.3 0-11.1 2.5-14.4 7.6-2.5 3.7-3.8 9.6-3.8 17.6 0 9.9 1.5 16.7 4.5 20.4s7.2 5.5 12.7 5.5c5.3 0 9.3-1.5 12-4.4 2.7-3.1 4.7-7.4 5.9-13zm56.5-52.8h27.6v31.3h30.2v-31.3h27.8v89.4h-27.8V161h-30.2v36.2h-27.6z" style="fill: #fffffff5;"/>
    <path d="M271.3 152.5c0-14.6 4.1-26 12.2-34.1s19.5-12.2 34-12.2c14.9 0 26.3 4 34.4 12s12.1 19.2 12.1 33.6c0 10.5-1.8 19-5.3 25.7-3.4 6.6-8.7 12-15.2 15.6-6.7 3.7-15 5.6-24.9 5.6-10.1 0-18.4-1.6-25-4.8-6.8-3.4-12.4-8.7-16.1-15.2-4.1-7-6.2-15.7-6.2-26.2zm27.6.1c0 9 1.7 15.5 5 19.5 3.3 3.9 7.9 5.9 13.7 5.9 5.9 0 10.5-1.9 13.8-5.8s4.9-10.8 4.9-20.8c0-8.4-1.7-14.6-5.1-18.4-3.4-3.9-8-5.8-13.8-5.8-5.1-.2-10 2-13.4 5.9s-5.1 10.4-5.1 19.5zm93.4-.1c0-14.6 4.1-26 12.2-34.1s19.5-12.2 34-12.2c14.9 0 26.4 4 34.4 12s12.1 19.2 12.1 33.6c0 10.5-1.8 19-5.3 25.7-3.4 6.6-8.7 12-15.2 15.6-6.7 3.7-15 5.6-24.9 5.6-10.1 0-18.4-1.6-25-4.8-6.8-3.4-12.4-8.7-16.1-15.2-4.1-7-6.2-15.7-6.2-26.2zm27.6.1c0 9 1.7 15.5 5 19.5 3.3 3.9 7.9 5.9 13.7 5.9 5.9 0 10.5-1.9 13.8-5.8s4.9-10.8 4.9-20.8c0-8.4-1.7-14.6-5.1-18.4-3.4-3.9-8-5.8-13.8-5.8-5.1-.2-10.1 2-13.4 5.9-3.4 3.9-5.1 10.4-5.1 19.5z" style="fill: #fffffff5;"/>
    <path d="M482.1 107.8h27.6v67.4h43.1v22H482v-89.4z" style="fill: #fffffff5;"/>
  </g>
  <path fill="#222" stroke="#fffffff5" d="M 424.015 101.688 L 465.226 77.898 L 465.226 30.31 L 424.015 6.519 L 382.805 30.31 L 382.805 77.898 L 424.015 101.688 Z" style="stroke-width: 3px;" transform="matrix(0.939693, 0.34202, -0.34202, 0.939693, 44.075687, -141.758881)"/>
  <g transform="matrix(0.119962, 0.043665, -0.043665, 0.119962, 405.600342, -0.154055)" style="">
    <circle cx="280.901" cy="349.576" r="50.167" fill="#fffffff5" style="stroke-width: 26.9265px;"/>
    <path fill="none" stroke="#fffffff5" stroke-miterlimit="10" d="M280.9 247.576c67.357 0 129.93 9.665 177.108 25.907 56.844 19.57 91.794 49.233 91.794 76.093 0 27.99-37.04 59.503-98.083 79.728-46.16 15.29-106.88 23.272-170.82 23.272-65.56 0-127.63-7.492-174.29-23.44C47.56 408.952 12 377.03 12 349.576c0-26.643 33.37-56.077 89.415-75.617 47.355-16.51 111.472-26.39 179.485-26.39z" style="stroke-width: 26.9265px;"/>
    <path fill="none" stroke="#fffffff5" stroke-miterlimit="10" d="M192.108 298.87c33.65-58.348 73.28-107.724 110.92-140.48 45.35-39.466 88.507-54.923 111.775-41.505 24.248 13.983 33.042 61.814 20.067 124.796-9.81 47.62-33.234 104.22-65.176 159.61-32.75 56.79-70.25 106.82-107.377 139.27-46.98 41.07-92.4 55.93-116.185 42.218-23.08-13.31-31.906-56.92-20.834-115.233 9.355-49.27 32.832-109.746 66.81-168.665z" style="stroke-width: 26.9265px;"/>
    <path fill="none" stroke="#fffffff5" stroke-miterlimit="10" d="M192.193 401.43c-33.746-58.292-56.73-117.287-66.312-166.255-11.54-59-3.38-104.11 19.87-117.566 24.23-14.03 70.06 2.24 118.14 44.94 36.36 32.28 73.69 80.83 105.73 136.17 32.844 56.73 57.46 114.21 67.036 162.58 12.117 61.21 2.31 107.98-21.453 121.74-23.056 13.35-65.25-.79-110.24-39.5-38.012-32.71-78.68-83.25-112.76-142.12z" style="stroke-width: 26.9265px;"/>
  </g>
</svg>